# xmcd
#
# Track frame offsets: 
#        182
#        14632
#        35520
#        58277
#        88387
#        135862
#        161062
#        237847
#        254240
#
# Disc length: 4079 seconds
#
# Revision: 2
# Processed by: cddbd v1.5.2PL0 Copyright (c) Steve Scherf et al.
# Submitted via: ExactAudioCopyFreeDBPlugin 1.0
#
DISCID=810fed09
DTITLE=Mick Abrahams' Blodwyn Pig - All Tore Down Live
DYEAR=1994
DGENRE=Rock
TTITLE0=It's Only Love
TTITLE1=All Tore Down
TTITLE2=Lies
TTITLE3=Billy The Kid
TTITLE4=I Wonder Who
TTITLE5=The Victim
TTITLE6=Cat's Squirrel
TTITLE7=Slow Down
TTITLE8=Dead Man's Hill
EXTD=YEAR: 1994
EXTT0=
EXTT1=
EXTT2=
EXTT3=
EXTT4=
EXTT5=
EXTT6=
EXTT7=
EXTT8=
PLAYORDER=
